<?xml version="1.0" encoding="utf-8"?>
<!-- Generator: Adobe Illustrator 22.1.0, SVG Export Plug-In . SVG Version: 6.00 Build 0)  -->
<svg version="1.1" id="Layer_1" xmlns="http://www.w3.org/2000/svg" xmlns:xlink="http://www.w3.org/1999/xlink" x="0px" y="0px"
	 viewBox="0 0 512 335.4" style="enable-background:new 0 0 512 335.4;" xml:space="preserve">
<style type="text/css">
	.st0{fill:#41479B;}
	.st1{fill:#F5F5F5;}
	.st2{fill:#FF4B55;}
</style>
<path class="st0" d="M503.2,335.4H8.8c-4.9,0-8.8-4-8.8-8.8V8.8C0,4,4,0,8.8,0h494.3c4.9,0,8.8,4,8.8,8.8v317.8
	C512,331.5,508,335.4,503.2,335.4z"/>
<path class="st1" d="M512,8.8c0-4.9-4-8.8-8.8-8.8h-39.5L300.1,107.1V0h-88.3v107.1L48.3,0H8.8C4,0,0,4,0,8.8v22.8l140.3,91.9H0
	v88.3h140.3L0,303.8v22.8c0,4.9,4,8.8,8.8,8.8h39.5l163.5-107.1v107.1h88.3V228.3l163.5,107.1h39.5c4.9,0,8.8-4,8.8-8.8v-22.8
	l-140.3-91.9H512v-88.3H371.7L512,31.7V8.8z"/>
<g>
	<polygon class="st2" points="512,141.2 282.5,141.2 282.5,0 229.5,0 229.5,141.2 0,141.2 0,194.2 229.5,194.2 229.5,335.4 
		282.5,335.4 282.5,194.2 512,194.2 	"/>
	<path class="st2" d="M178.9,211.9L0.2,327.9c0.6,4.3,4.1,7.6,8.6,7.6H21l190.4-123.6L178.9,211.9L178.9,211.9z"/>
	<path class="st2" d="M346.4,211.9H314l190.1,123.4c4.4-0.5,7.9-4.1,7.9-8.6v-7.3L346.4,211.9z"/>
	<path class="st2" d="M0,18.6l161.8,105h32.4L5.1,0.9C2.1,2.3,0,5.3,0,8.8V18.6z"/>
	<path class="st2" d="M332.6,123.6L511.7,7.3c-0.7-4.1-4.2-7.3-8.5-7.3h-12.6L300.1,123.6H332.6z"/>
</g>
</svg>
