<?xml version="1.0" encoding="utf-8"?>
<!-- Generator: Adobe Illustrator 22.1.0, SVG Export Plug-In . SVG Version: 6.00 Build 0)  -->
<svg version="1.1" id="Layer_1" xmlns="http://www.w3.org/2000/svg" xmlns:xlink="http://www.w3.org/1999/xlink" x="0px" y="0px"
	 viewBox="0 0 512 335.4" style="enable-background:new 0 0 512 335.4;" xml:space="preserve">
<style type="text/css">
	.st0{fill:#C8414B;}
	.st1{fill:#FFD250;}
	.st2{fill:#F5F5F5;}
	.st3{fill:#FAB446;}
	.st4{fill:#FFB441;}
	.st5{fill:#5064AA;}
	.st6{fill:#FFA0D2;}
</style>
<path class="st0" d="M8.8,335.4h494.3c4.9,0,8.8-4,8.8-8.8V8.8c0-4.9-4-8.8-8.8-8.8H8.8C4,0,0,4,0,8.8v317.8
	C0,331.5,4,335.4,8.8,335.4z"/>
<rect y="70.6" class="st1" width="512" height="194.2"/>
<path class="st0" d="M216.3,167.7l7.5-33.7c0.7-3.1-1.7-6-4.8-6h-5.3c-3.2,0-5.5,2.9-4.8,6L216.3,167.7z"/>
<rect x="207.4" y="150.1" class="st2" width="17.7" height="75"/>
<rect x="203" y="141.2" class="st3" width="26.5" height="8.8"/>
<g>
	<rect x="185.4" y="167.7" class="st0" width="44.1" height="8.8"/>
	<polygon class="st0" points="229.5,203 203,194.2 203,185.4 229.5,194.2 	"/>
	<path class="st0" d="M83.9,167.7l7.5-33.7c0.7-3.1-1.7-6-4.8-6h-5.3c-3.2,0-5.5,2.9-4.8,6L83.9,167.7z"/>
</g>
<path class="st2" d="M114.8,141.2c-4.9,0-8.8,4-8.8,8.8v57.4c0,10.7,10,30.9,44.1,30.9s44.1-20.2,44.1-30.9v-57.4
	c0-4.9-4-8.8-8.8-8.8H114.8z"/>
<g>
	<path class="st0" d="M150.1,185.4h-44.1v-35.3c0-4.9,4-8.8,8.8-8.8h35.3V185.4z"/>
	<path class="st0" d="M150.1,185.4h44.1v22.1c0,12.2-9.9,22.1-22.1,22.1l0,0c-12.2,0-22.1-9.9-22.1-22.1V185.4z"/>
</g>
<path class="st3" d="M105.9,185.4h44.1v22.1c0,12.2-9.9,22.1-22.1,22.1l0,0c-12.2,0-22.1-9.9-22.1-22.1V185.4z"/>
<g>
	<path class="st0" d="M141.2,225v-39.6h-8.8v43.7C135.7,228.4,138.7,227,141.2,225z"/>
	<path class="st0" d="M123.6,229.1v-43.7h-8.8V225C117.3,227,120.3,228.4,123.6,229.1z"/>
</g>
<rect x="114.8" y="167.7" class="st4" width="26.5" height="8.8"/>
<g>
	<rect x="114.8" y="150.1" class="st3" width="26.5" height="8.8"/>
	<rect x="119.2" y="155.3" class="st3" width="17.7" height="16"/>
</g>
<rect x="75" y="150.1" class="st2" width="17.7" height="75"/>
<g>
	<rect x="70.6" y="220.7" class="st3" width="26.5" height="8.8"/>
	<rect x="70.6" y="141.2" class="st3" width="26.5" height="8.8"/>
</g>
<rect x="66.2" y="229.5" class="st5" width="35.3" height="8.8"/>
<rect x="207.4" y="220.7" class="st3" width="26.5" height="8.8"/>
<rect x="198.6" y="229.5" class="st5" width="35.3" height="8.8"/>
<rect x="123.6" y="132.4" class="st3" width="53" height="8.8"/>
<rect x="145.7" y="105.9" class="st4" width="8.8" height="26.5"/>
<g>
	<path class="st2" d="M141.2,119.2c-7.3,0-13.2-5.9-13.2-13.2c0-7.3,5.9-13.2,13.2-13.2c7.3,0,13.2,5.9,13.2,13.2
		C154.5,113.2,148.5,119.2,141.2,119.2z M141.2,101.5c-2.4,0-4.4,2-4.4,4.4c0,2.4,2,4.4,4.4,4.4s4.4-2,4.4-4.4
		C145.7,103.5,143.7,101.5,141.2,101.5z"/>
	<path class="st2" d="M158.9,119.2c-7.3,0-13.2-5.9-13.2-13.2c0-7.3,5.9-13.2,13.2-13.2c7.3,0,13.2,5.9,13.2,13.2
		S166.2,119.2,158.9,119.2z M158.9,101.5c-2.4,0-4.4,2-4.4,4.4c0,2.4,2,4.4,4.4,4.4c2.4,0,4.4-2,4.4-4.4
		C163.3,103.5,161.3,101.5,158.9,101.5z"/>
	<path class="st2" d="M176.6,128c-7.3,0-13.2-5.9-13.2-13.2c0-7.3,5.9-13.2,13.2-13.2c7.3,0,13.2,5.9,13.2,13.2S183.9,128,176.6,128
		z M176.6,110.3c-2.4,0-4.4,2-4.4,4.4c0,2.4,2,4.4,4.4,4.4c2.4,0,4.4-2,4.4-4.4S179,110.3,176.6,110.3z"/>
	<path class="st2" d="M123.6,128c-7.3,0-13.2-5.9-13.2-13.2c0-7.3,5.9-13.2,13.2-13.2c7.3,0,13.2,5.9,13.2,13.2
		C136.8,122.1,130.9,128,123.6,128z M123.6,110.3c-2.4,0-4.4,2-4.4,4.4c0,2.4,2,4.4,4.4,4.4s4.4-2,4.4-4.4
		C128,112.3,126,110.3,123.6,110.3z"/>
</g>
<path class="st3" d="M176.6,203v4.4c0,2.4-2,4.4-4.4,4.4s-4.4-2-4.4-4.4V203H176.6 M185.4,194.2h-26.5v13.2
	c0,7.3,5.9,13.2,13.2,13.2c7.3,0,13.2-5.9,13.2-13.2L185.4,194.2L185.4,194.2z"/>
<path class="st6" d="M172.1,176.6L172.1,176.6c-4.9,0-8.8-4-8.8-8.8v-8.8c0-4.9,4-8.8,8.8-8.8l0,0c4.9,0,8.8,4,8.8,8.8v8.8
	C181,172.6,177,176.6,172.1,176.6z"/>
<circle class="st5" cx="150.1" cy="185.4" r="13.2"/>
<rect x="145.7" y="88.3" class="st3" width="8.8" height="26.5"/>
<path class="st0" d="M123.6,132.4l-8.8-8.8l5.2-5.2c8-8,18.8-12.5,30.1-12.5l0,0c11.3,0,22.1,4.5,30.1,12.5l5.2,5.2l-8.8,8.8H123.6z
	"/>
<g>
	<circle class="st1" cx="150.1" cy="123.6" r="4.4"/>
	<circle class="st1" cx="132.4" cy="123.6" r="4.4"/>
	<circle class="st1" cx="167.7" cy="123.6" r="4.4"/>
</g>
<g>
	<rect x="70.6" y="167.7" class="st0" width="44.1" height="8.8"/>
	<polygon class="st0" points="70.6,203 97.1,194.2 97.1,185.4 70.6,194.2 	"/>
</g>
</svg>
